<svg id="Capa_1" enable-background="new 0 0 512 512" height="512" viewBox="0 0 512 512" width="512" xmlns="http://www.w3.org/2000/svg"><g><path d="m61 195h195v197.503h-195z" fill="#807dbb"/><path d="m256 195h195v197.503h-195z" fill="#6461ac"/><path d="m75 120c-41.355 0-75 33.645-75 75s33.645 75 75 75h181v-150z" fill="#b6b5d8"/><path d="m437 120h-181v150h181c41.355 0 75-33.645 75-75s-33.645-75-75-75z" fill="#9b99c9"/><path d="m256 0-97.5 195 97.5 195c107.695 0 195-87.304 195-195s-87.305-195-195-195z" fill="#9b99c9"/><path d="m61 195c0 107.696 87.304 195 195 195v-390c-107.696 0-195 87.304-195 195z" fill="#b6b5d8"/><path d="m166 390 90 122h60l45-122z" fill="#b6b5d8"/><path d="m512 450c0-49.626-40.374-90-90-90h-6.729l-99.271 30v122h196z" fill="#9b99c9"/><path d="m96.729 360h-6.729c-49.626 0-90 40.374-90 90v62h256v-107z" fill="#dadaeb"/><path d="m370.271 450 45-90h-159.271v90z" fill="#807dbb"/><path d="m256 450v-90h-159.271l45 90z" fill="#9b99c9"/><path d="m331 14.955-135 76.103 60 298.942c107.695 0 195-87.304 195-195 0-81.117-49.534-150.657-120-180.045z" fill="#b6b5d8"/><path d="m181 14.955c-70.466 29.388-120 98.928-120 180.045 0 107.696 87.304 195 195 195v-283.942z" fill="#dadaeb"/><path d="m226 106.058h105v-91.103c-23.089-9.629-48.421-14.955-75-14.955z" fill="#807dbb"/><path d="m256 106.058v-106.058c-26.579 0-51.911 5.326-75 14.955v91.102h75z" fill="#9b99c9"/><path d="m391 195c0-74.558-60.442-135-135-135l-45 135 45 45h39.271l34.15 68.3c37.061-24.067 61.579-65.818 61.579-113.3z" fill="#2c2c2f"/><path d="m256 240v-180c-74.558 0-135 60.442-135 135 0 47.482 24.518 89.233 61.58 113.3l34.15-68.3z" fill="#363476"/></g></svg>