<svg id="Capa_1" enable-background="new 0 0 512 512" height="512" viewBox="0 0 512 512" width="512" xmlns="http://www.w3.org/2000/svg"><g><path d="" fill="#654baa"/><path d="m512 256c0 82.261-38.795 155.467-99.093 202.283l-58.688 20.096c-63.659 21.792-132.779 21.792-196.437 0l-58.688-20.096c-60.299-46.816-99.094-120.022-99.094-202.283 0-141.387 114.613-256 256-256s256 114.613 256 256z" fill="#654baa"/><g><g><path d="m512 256c0 65.237-24.405 124.779-64.576 169.984-10.485 11.797-22.037 22.613-34.517 32.299l-58.688 20.096c-63.659 21.792-132.779 21.792-196.437 0l-58.688-20.096c-12.48-9.685-24.032-20.502-34.517-32.299-40.172-45.205-64.577-104.747-64.577-169.984 0-46.219 12.245-89.568 33.675-126.997 44.128 77.066 127.168 129.002 222.325 129.002s178.208-51.936 222.325-129.003c21.43 37.43 33.675 80.779 33.675 126.998z" fill="#513390"/></g></g><g><g><path d="m412.907 412.491v45.792c-3.563 2.773-7.2 5.451-10.901 8.032-41.419 28.8-91.734 45.685-146.006 45.685s-104.587-16.885-146.005-45.685c-3.701-2.581-7.339-5.259-10.901-8.032v-45.792c0-37.92 17.653-73.685 47.744-96.747l43.051-32.971h132.224l43.04 32.971c30.111 23.061 47.754 58.827 47.754 96.747z" fill="#fff"/><path d="m412.907 412.491v45.792c-3.563 2.773-7.2 5.451-10.901 8.032-41.419 28.8-91.734 45.685-146.006 45.685v-229.227h66.112l43.04 32.971c30.112 23.061 47.755 58.827 47.755 96.747z" fill="#dddddf"/><path d="m318.016 388.16v116.267c-7.424 1.856-14.976 3.371-22.645 4.555-12.832 1.994-25.984 3.018-39.371 3.018s-26.539-1.024-39.371-3.019c-7.669-1.184-15.221-2.698-22.645-4.555v-116.266c0-7.776 6.304-14.08 14.08-14.08h95.872c7.765 0 14.08 6.304 14.08 14.08z" fill="#313133"/><path d="m318.016 388.16v116.267c-7.424 1.856-14.976 3.371-22.645 4.555-12.832 1.994-25.984 3.018-39.371 3.018v-137.92h47.936c7.765 0 14.08 6.304 14.08 14.08z" fill="#2b2b2b"/><g><path d="m157.384 424.309v23.903c0 5.564-4.513 10.071-10.071 10.071h-48.225v-44.045h48.225c5.558-.001 10.071 4.507 10.071 10.071z" fill="#0090ff"/><path d="m412.91 414.237v44.045h-48.218c-5.563 0-10.072-4.51-10.072-10.072v-23.9c0-5.563 4.51-10.072 10.072-10.072h48.218z" fill="#006cff"/></g></g><g><g><g><path d="m365.822 299.644-21.652-16.875h-176.343l-21.652 16.875-2.017 1.572c-1.49 1.161-1.643 3.363-.322 4.713.207.212.415.423.623.633 29.719 30.052 69.309 46.669 111.54 46.841.23.006.459.006.689.006 42.489 0 82.349-16.634 112.229-46.841.008-.009.017-.017.025-.026 1.327-1.345 1.173-3.551-.317-4.713z" fill="#0092ff"/></g><path d="m368.625 301.83c1.49 1.162 1.644 3.368.317 4.713-.008.009-.017.017-.025.026-30.041 30.37-70.168 47.02-112.914 46.84-.002-.002-.003-.003-.004-.004v-70.635h88.171l21.652 16.875z" fill="#0076ff"/><g><path d="m419.645 173.498v47.599c0 8.423-6.827 15.244-15.245 15.244h-296.804c-8.418 0-15.244-6.821-15.244-15.244v-47.599c0-8.423 6.827-15.244 15.244-15.244h296.805c8.417 0 15.244 6.821 15.244 15.244z" fill="#0092ff"/><path d="m419.645 173.498v47.599c0 8.423-6.827 15.244-15.245 15.244h-148.402v-78.088h148.402c8.418.001 15.245 6.822 15.245 15.245z" fill="#0076ff"/><g><path d="m380.021 195.551c0 6.253-.465 12.397-1.361 18.397-3.956 26.653-16.398 50.533-34.491 68.821-22.479 22.726-53.68 36.805-88.171 36.805s-65.692-14.079-88.171-36.805c-18.092-18.288-30.535-42.168-34.491-68.821-.896-6-1.361-12.144-1.361-18.397s.465-12.397 1.361-18.403c8.883-59.772 60.421-105.62 122.662-105.62s113.779 45.848 122.662 105.62c.896 6.006 1.361 12.15 1.361 18.403z" fill="#fff"/><path d="m380.021 195.553c0 6.253-.465 12.397-1.361 18.397-8.883 59.772-60.421 105.626-122.662 105.626v-248.046c62.241 0 113.779 45.848 122.662 105.62.896 6.006 1.361 12.15 1.361 18.403z" fill="#dddddf"/><g><path d="m255.998 177.15v36.799h-122.662c-.896-6-1.361-12.144-1.361-18.397s.465-12.396 1.361-18.403h122.662z" fill="#fdd425"/><path d="m380.021 195.553c0 6.253-.465 12.397-1.361 18.397h-122.662v-36.8h122.662c.896 6.006 1.361 12.15 1.361 18.403z" fill="#feb123"/></g></g></g></g></g><g><path d="m216.629 398.197v110.784c12.832 1.995 25.984 3.019 39.371 3.019s26.539-1.024 39.371-3.019v-110.784z" fill="#0092ff"/></g><path d="m295.371 398.197v110.784c-12.832 1.995-25.984 3.019-39.371 3.019v-113.803z" fill="#006cff"/><path d="m99.088 431.17h32.888v12.058h-32.888z" fill="#fdd425"/><path d="m380.021 430.309h32.888v12.058h-32.888z" fill="#feb123"/><ellipse cx="236.485" cy="423.607" fill="#fda736" rx="9.541" ry="9.54" transform="matrix(.924 -.383 .383 .924 -144.106 122.744)"/><circle cx="236.485" cy="458.111" fill="#fda736" r="9.54"/><g fill="#fff"><path d="m256 414.066h39.371v19.08h-39.371z"/><path d="m256 448.571h39.371v19.08h-39.371z"/></g></g><g><g><g><g><path d="m430.108 342.546h1.626c7.203 0 13.042-5.839 13.042-13.042v-1.626h9.297v1.626c0 7.203 5.839 13.042 13.042 13.042h1.626v9.297h-1.626c-7.203 0-13.042 5.839-13.042 13.042v1.626h-9.297v-1.626c0-7.203-5.839-13.042-13.042-13.042h-1.626z" fill="#fff"/></g></g><g><g><path d="m381.289 271.398h1.626c7.203 0 13.042-5.839 13.042-13.042v-1.626h9.297v1.626c0 7.203 5.839 13.042 13.042 13.042h1.626v9.297h-1.626c-7.203 0-13.042 5.839-13.042 13.042v1.626h-9.297v-1.626c0-7.203-5.839-13.042-13.042-13.042h-1.626z" fill="#fff"/></g></g></g></g><g><g><g><g><path d="m79.455 342.546h-1.626c-7.203 0-13.042-5.839-13.042-13.042v-1.626h-9.297v1.626c0 7.203-5.839 13.042-13.042 13.042h-1.626v9.297h1.626c7.203 0 13.042 5.839 13.042 13.042v1.626h9.297v-1.626c0-7.203 5.839-13.042 13.042-13.042h1.626z" fill="#fff"/></g></g><g><g><path d="m128.273 271.398h-1.626c-7.203 0-13.042-5.839-13.042-13.042v-1.626h-9.297v1.626c0 7.203-5.839 13.042-13.042 13.042h-1.626v9.297h1.626c7.203 0 13.042 5.839 13.042 13.042v1.626h9.297v-1.626c0-7.203 5.839-13.042 13.042-13.042h1.626z" fill="#fff"/></g></g><g><g><path d="m131.813 88.069h-1.626c-7.203 0-13.042-5.839-13.042-13.042v-1.626h-9.297v1.626c0 7.203-5.839 13.042-13.042 13.042h-1.626v9.297h1.626c7.203 0 13.042 5.839 13.042 13.042v1.626h9.297v-1.626c0-7.203 5.839-13.042 13.042-13.042h1.626z" fill="#fff"/></g></g><g><g><path d="m411.406 88.069h-1.626c-7.203 0-13.042-5.839-13.042-13.042v-1.626h-9.297v1.626c0 7.203-5.839 13.042-13.042 13.042h-1.626v9.297h1.626c7.203 0 13.042 5.839 13.042 13.042v1.626h9.297v-1.626c0-7.203 5.839-13.042 13.042-13.042h1.626z" fill="#fff"/></g></g></g></g><g><g><path d="m343.223 195.545c0 47.944-38.677 86.85-86.535 87.218-.23.006-.459.006-.689.006-48.173 0-87.223-39.05-87.223-87.224s39.05-87.224 87.223-87.224c.23 0 .459 0 .689.006 47.859.368 86.535 39.274 86.535 87.218z" fill="#3c3b40"/><path d="m343.223 195.545c0 48.174-39.05 87.224-87.224 87.224v-174.448c48.174 0 87.224 39.05 87.224 87.224z" fill="#313133"/><path d="m343.223 195.545c0 47.944-38.677 86.85-86.535 87.218 29.174-.603 52.71-39.423 52.71-87.218s-23.536-86.615-52.71-87.218c47.859.368 86.535 39.274 86.535 87.218z" fill="#2b2b2b"/></g><ellipse cx="215.806" cy="225.978" fill="#dddddf" rx="15.216" ry="15.216" transform="matrix(.707 -.707 .707 .707 -96.582 218.785)"/></g></g></svg>